# xmcd
#
# Track frame offsets:
#	150
#	11656
#	21312
#	31967
#	44537
#	55584
#	66626
#	79643
#	89879
#	102772
#	115169
#	126906
#	136620
#	148906
#	159644
#	169590
#	181167
#	194538
#	205429
#	215346
#
# Disc length: 3015 seconds
#
# Revision: 1
# Processed by: cddbd v1.5.2PL0 Copyright (c) Steve Scherf et al.
# Submitted via: audiograbber 1.83.01
#
DISCID=240bc514
DTITLE=James Brown - The Absolute Essential Collection Disc 2
DYEAR=2016
DGENRE=Rhythm and Blues
TTITLE0=Try Me (I Need You)
TTITLE1=I'll Go Crazy
TTITLE2=Tell Me What I Did Wrong
TTITLE3=I Want You So Bad
TTITLE4=There Must Be A Reason
TTITLE5=I've Got To Change
TTITLE6=It Hurts To Tell You
TTITLE7=Good, Good Lovin'
TTITLE8=Don't Let It Happen To Me
TTITLE9=It Was You
TTITLE10=Got To Cry
TTITLE11=Fine Old Foxy Self
TTITLE12=I Know It's True (I Found Someone)
TTITLE13=You've Got The Power
TTITLE14=This Old Heart
TTITLE15=Wonder When You're Coming Home
TTITLE16=The Bells
TTITLE17=And I Do Just What I Want
TTITLE18=Hold It
TTITLE19=Bewildered
EXTD=
EXTT0=
EXTT1=
EXTT2=
EXTT3=
EXTT4=
EXTT5=
EXTT6=
EXTT7=
EXTT8=
EXTT9=
EXTT10=
EXTT11=
EXTT12=
EXTT13=
EXTT14=
EXTT15=
EXTT16=
EXTT17=
EXTT18=
EXTT19=
PLAYORDER=
